<svg xmlns="http://www.w3.org/2000/svg" xmlns:xlink="http://www.w3.org/1999/xlink" width="250" zoomAndPan="magnify" viewBox="0 0 187.5 112.499997" height="150" preserveAspectRatio="xMidYMid meet" version="1.0"><defs><g/><clipPath id="3878920724"><path d="M 0.164062 0 L 186.835938 0 L 186.835938 112.003906 L 0.164062 112.003906 Z M 0.164062 0 " clip-rule="nonzero"/></clipPath><clipPath id="7a14da0118"><path d="M 11.394531 11.230469 L 83.527344 11.230469 L 83.527344 103.3125 L 11.394531 103.3125 Z M 11.394531 11.230469 " clip-rule="nonzero"/></clipPath></defs><g clip-path="url(#3878920724)"><path fill="#ffffff" d="M 0.164062 0 L 187.335938 0 L 187.335938 119.039062 L 0.164062 119.039062 Z M 0.164062 0 " fill-opacity="1" fill-rule="nonzero"/><path fill="#ffffff" d="M 0.164062 0 L 187.335938 0 L 187.335938 112.300781 L 0.164062 112.300781 Z M 0.164062 0 " fill-opacity="1" fill-rule="nonzero"/><path fill="#ffffff" d="M 0.164062 0 L 187.335938 0 L 187.335938 112.300781 L 0.164062 112.300781 Z M 0.164062 0 " fill-opacity="1" fill-rule="nonzero"/></g><g clip-path="url(#7a14da0118)"><path fill="#65b2ea" d="M 28.761719 11.230469 L 11.398438 73.15625 L 29.492188 73.234375 L 23.113281 103.316406 L 51.859375 59.871094 L 32.214844 59.914062 L 40.761719 31.800781 L 61.945312 31.726562 C 62.277344 31.726562 62.59375 31.789062 62.902344 31.917969 C 63.207031 32.046875 63.476562 32.230469 63.710938 32.464844 C 63.949219 32.703125 64.128906 32.976562 64.253906 33.285156 C 64.382812 33.59375 64.445312 33.914062 64.445312 34.25 C 64.445312 34.585938 64.382812 34.910156 64.253906 35.21875 C 64.125 35.53125 63.941406 35.804688 63.703125 36.039062 C 63.46875 36.277344 63.195312 36.460938 62.886719 36.585938 C 62.578125 36.710938 62.257812 36.773438 61.921875 36.773438 L 44.730469 36.78125 L 39.125 55.121094 L 61.78125 55.121094 C 73.855469 55.121094 83.628906 45.1875 83.53125 33 C 83.425781 20.949219 73.714844 11.230469 61.773438 11.230469 Z M 28.761719 11.230469 " fill-opacity="1" fill-rule="nonzero"/></g><g fill="#65b2ea" fill-opacity="1"><g transform="translate(64.539904, 78.684458)"><g><path d="M 15.808594 -9.558594 L 9.484375 -9.558594 L 12.648438 -18.457031 Z M 25.148438 0 L 15 -25 L 10.332031 -25 L 0.183594 0 L 6.101562 0 L 7.902344 -5.035156 L 17.425781 -5.035156 L 19.226562 0 Z M 25.148438 0 "/></g></g></g><g fill="#65b2ea" fill-opacity="1"><g transform="translate(94.391195, 78.684458)"><g><path d="M 16.800781 -25 L 16.800781 -10.550781 C 16.800781 -7.09375 15.773438 -5.148438 11.984375 -5.148438 C 8.234375 -5.148438 7.167969 -7.09375 7.167969 -10.550781 L 7.167969 -25 L 1.65625 -25 L 1.65625 -9.742188 C 1.65625 -3.089844 5.476562 0.367188 11.984375 0.367188 C 18.492188 0.367188 22.316406 -3.089844 22.316406 -9.742188 L 22.316406 -25 Z M 16.800781 -25 "/></g></g></g><g fill="#65b2ea" fill-opacity="1"><g transform="translate(122.882299, 78.684458)"><g><path d="M 11.910156 -3.898438 C 9.191406 -3.898438 6.839844 -5.257812 6.691406 -8.234375 L 1.101562 -8.234375 C 1.140625 -2.132812 6.175781 0.589844 11.691406 0.589844 C 16.800781 0.589844 22.058594 -1.582031 22.058594 -7.464844 C 22.058594 -16.984375 7.609375 -13.785156 7.609375 -18.234375 C 7.609375 -20.109375 9.777344 -20.84375 11.324219 -20.84375 C 14.082031 -20.84375 15.589844 -20 15.882812 -17.390625 L 21.214844 -17.390625 C 21.027344 -23.085938 16.398438 -25.367188 11.25 -25.367188 C 6.691406 -25.367188 1.910156 -22.941406 1.910156 -17.792969 C 1.910156 -8.566406 16.359375 -11.691406 16.359375 -6.839844 C 16.359375 -4.59375 13.640625 -3.898438 11.910156 -3.898438 Z M 11.910156 -3.898438 "/></g></g></g><g fill="#65b2ea" fill-opacity="1"><g transform="translate(150.564647, 78.684458)"><g><path d="M 16.691406 -5 L 7.71875 -5 L 7.71875 -10.035156 L 16.324219 -10.035156 L 16.324219 -15.035156 L 7.71875 -15.035156 L 7.71875 -20 L 16.691406 -20 L 16.691406 -25 L 2.207031 -25 L 2.207031 0 L 16.691406 0 Z M 16.691406 -5 "/></g></g></g></svg>