<svg xmlns="http://www.w3.org/2000/svg" version="1.1" xmlns:xlink="http://www.w3.org/1999/xlink" xmlns:svgjs="http://svgjs.dev/svgjs" width="128" height="128" viewBox="0 0 128 128"><g transform="matrix(0.8046875,0,0,0.8046875,12.62871389727929,4.754620230263157)"><svg viewBox="0 0 82 95" data-background-color="#f9e17e" preserveAspectRatio="xMidYMid meet" height="148" width="128" xmlns="http://www.w3.org/2000/svg" xmlns:xlink="http://www.w3.org/1999/xlink"><g id="tight-bounds" transform="matrix(1,0,0,1,-0.10247125802817436,-0.24049999999999727)"><svg viewBox="0 0 82.20494251605635 95.481" height="95.481" width="82.20494251605635"><g><svg viewBox="0 0 82.20494251605635 95.481" height="95.481" width="82.20494251605635"><g><svg viewBox="0 0 82.20494251605635 95.481" height="95.481" width="82.20494251605635"><g id="textblocktransform"><svg viewBox="0 0 82.20494251605635 95.481" height="95.481" width="82.20494251605635" id="textblock"><g><svg viewBox="0 0 82.20494251605635 95.481" height="95.481" width="82.20494251605635"><g><svg viewBox="0 0 82.20494251605635 95.481" height="95.481" width="82.20494251605635"><g><svg xmlns="http://www.w3.org/2000/svg" xmlns:xlink="http://www.w3.org/1999/xlink" version="1.1" x="0" y="0" viewBox="7.699 0 85.89500005236009 99.767" enable-background="new 0 0 100 100" xml:space="preserve" height="95.481" width="82.20494251605635" class="icon-icon-0" data-fill-palette-color="accent" id="icon-0"><g fill="#454545" data-fill-palette-color="accent"><path fill="#454545" d="M60.147 14.945V26.74c12.766 4.042 22.045 15.997 22.045 30.082 0 17.395-14.149 31.544-31.546 31.544-17.394 0-31.545-14.149-31.545-31.544 0-14.085 9.279-26.04 22.043-30.082V14.945C22.022 19.283 7.699 36.405 7.699 56.821c0 23.681 19.267 42.946 42.947 42.946 23.682 0 42.948-19.266 42.948-42.946C93.595 36.405 79.272 19.283 60.147 14.945z" data-fill-palette-color="accent"></path><path fill="#454545" d="M50.646 62.521c3.149 0 5.702-2.554 5.702-5.7V5.701C56.349 2.553 53.796 0 50.646 0c-3.148 0-5.701 2.553-5.701 5.701v51.12C44.946 59.968 47.499 62.521 50.646 62.521z" data-fill-palette-color="accent"></path></g></svg></g></svg></g></svg></g></svg></g></svg></g><g></g></svg></g><defs></defs></svg><rect width="82.20494251605635" height="95.481" fill="none" stroke="none" visibility="hidden"></rect></g></svg></g></svg>