<svg xmlns="http://www.w3.org/2000/svg" xmlns:xlink="http://www.w3.org/1999/xlink" width="500" zoomAndPan="magnify" viewBox="0 0 375 112.499997" height="150" preserveAspectRatio="xMidYMid meet" version="1.0"><defs><g/><clipPath id="09d83fb312"><path d="M 0.828125 0 L 374.167969 0 L 374.167969 112.003906 L 0.828125 112.003906 Z M 0.828125 0 " clip-rule="nonzero"/></clipPath><clipPath id="0190535a67"><path d="M 30.695312 11.296875 L 101.632812 11.296875 L 101.632812 100.898438 L 30.695312 100.898438 Z M 30.695312 11.296875 " clip-rule="nonzero"/></clipPath></defs><g clip-path="url(#09d83fb312)"><path fill="#ffffff" d="M 0.828125 0 L 374.171875 0 L 374.171875 119.46875 L 0.828125 119.46875 Z M 0.828125 0 " fill-opacity="1" fill-rule="nonzero"/><path fill="#ffffff" d="M 0.828125 0 L 374.171875 0 L 374.171875 112.003906 L 0.828125 112.003906 Z M 0.828125 0 " fill-opacity="1" fill-rule="nonzero"/><path fill="#ffbd59" d="M 0.828125 0 L 374.171875 0 L 374.171875 112.003906 L 0.828125 112.003906 Z M 0.828125 0 " fill-opacity="1" fill-rule="nonzero"/></g><g clip-path="url(#0190535a67)"><path fill="#ffffff" d="M 47.773438 11.296875 L 30.699219 71.554688 L 48.492188 71.628906 L 42.21875 100.902344 L 70.488281 58.628906 L 51.167969 58.667969 L 59.578125 31.316406 L 80.40625 31.242188 C 80.734375 31.242188 81.046875 31.304688 81.347656 31.429688 C 81.648438 31.554688 81.914062 31.730469 82.144531 31.960938 C 82.375 32.191406 82.554688 32.457031 82.679688 32.757812 C 82.804688 33.058594 82.867188 33.371094 82.867188 33.695312 C 82.867188 34.023438 82.800781 34.339844 82.675781 34.640625 C 82.550781 34.941406 82.371094 35.210938 82.136719 35.441406 C 81.90625 35.671875 81.636719 35.847656 81.332031 35.96875 C 81.03125 36.09375 80.714844 36.152344 80.386719 36.152344 L 63.476562 36.160156 L 57.96875 54.003906 L 80.246094 54.003906 C 92.121094 54.003906 101.730469 44.339844 101.632812 32.480469 C 101.53125 20.753906 91.984375 11.296875 80.238281 11.296875 Z M 47.773438 11.296875 " fill-opacity="1" fill-rule="nonzero"/></g><g fill="#ffffff" fill-opacity="1"><g transform="translate(90.164746, 76.385179)"><g><path d="M 20.929688 -12.199219 C 20.929688 -8.441406 17.527344 -5.007812 13.773438 -5.007812 C 10.015625 -5.007812 6.617188 -8.441406 6.617188 -12.199219 C 6.617188 -15.957031 10.015625 -19.355469 13.773438 -19.355469 C 17.527344 -19.355469 20.929688 -15.957031 20.929688 -12.199219 Z M 26.292969 -12.164062 C 26.292969 -18.886719 20.5 -24.683594 13.773438 -24.683594 C 7.046875 -24.683594 1.253906 -18.886719 1.253906 -12.164062 C 1.253906 -5.4375 7.046875 0.359375 13.773438 0.359375 C 20.5 0.359375 26.292969 -5.4375 26.292969 -12.164062 Z M 26.292969 -12.164062 "/></g></g></g><g fill="#ffffff" fill-opacity="1"><g transform="translate(122.10958, 76.385179)"><g><path d="M 32.484375 -24.328125 L 26.582031 -24.328125 L 23.71875 -7.546875 L 18.960938 -24.328125 L 13.703125 -24.328125 L 8.945312 -7.546875 L 6.082031 -24.328125 L 0.179688 -24.328125 L 4.902344 0 L 11.269531 0 L 16.347656 -17.0625 L 21.394531 0 L 27.761719 0 Z M 32.484375 -24.328125 "/></g></g></g><g fill="#ffffff" fill-opacity="1"><g transform="translate(159.169743, 76.385179)"><g><path d="M 16.242188 -4.867188 L 7.511719 -4.867188 L 7.511719 -9.765625 L 15.882812 -9.765625 L 15.882812 -14.632812 L 7.511719 -14.632812 L 7.511719 -19.460938 L 16.242188 -19.460938 L 16.242188 -24.328125 L 2.144531 -24.328125 L 2.144531 0 L 16.242188 0 Z M 16.242188 -4.867188 "/></g></g></g><g fill="#ffffff" fill-opacity="1"><g transform="translate(181.95706, 76.385179)"><g><path d="M 7.511719 -8.691406 L 7.546875 -8.691406 L 13.34375 0 L 20.140625 0 L 13.164062 -8.945312 C 16.242188 -9.695312 18.710938 -12.414062 18.710938 -16.527344 C 18.710938 -21.140625 15.203125 -24.328125 11.269531 -24.328125 L 2.144531 -24.328125 L 2.144531 0 L 7.511719 0 Z M 10.375 -20.105469 C 11.949219 -20.105469 13.59375 -18.746094 13.59375 -16.527344 C 13.59375 -14.203125 11.949219 -12.914062 10.375 -12.914062 L 7.511719 -12.914062 L 7.511719 -20.105469 Z M 10.375 -20.105469 "/></g></g></g><g fill="#ffffff" fill-opacity="1"><g transform="translate(206.067921, 76.385179)"><g/></g></g><g fill="#ffffff" fill-opacity="1"><g transform="translate(219.411545, 76.385179)"><g><path d="M 7.511719 -8.691406 L 11.269531 -8.691406 C 15.203125 -8.691406 18.710938 -11.589844 18.710938 -16.527344 C 18.710938 -21.140625 15.203125 -24.328125 11.269531 -24.328125 L 2.144531 -24.328125 L 2.144531 0 L 7.511719 0 Z M 10.375 -20.105469 C 11.949219 -20.105469 13.59375 -18.746094 13.59375 -16.527344 C 13.59375 -14.203125 11.949219 -12.914062 10.375 -12.914062 L 7.511719 -12.914062 L 7.511719 -20.105469 Z M 10.375 -20.105469 "/></g></g></g><g fill="#ffffff" fill-opacity="1"><g transform="translate(243.05738, 76.385179)"><g><path d="M 15.382812 -9.300781 L 9.230469 -9.300781 L 12.304688 -17.957031 Z M 24.46875 0 L 14.597656 -24.328125 L 10.050781 -24.328125 L 0.179688 0 L 5.9375 0 L 7.691406 -4.902344 L 16.957031 -4.902344 L 18.710938 0 Z M 24.46875 0 "/></g></g></g><g fill="#ffffff" fill-opacity="1"><g transform="translate(272.10472, 76.385179)"><g><path d="M 16.347656 -24.328125 L 16.347656 -10.265625 C 16.347656 -6.90625 15.347656 -5.007812 11.664062 -5.007812 C 8.011719 -5.007812 6.976562 -6.90625 6.976562 -10.265625 L 6.976562 -24.328125 L 1.609375 -24.328125 L 1.609375 -9.480469 C 1.609375 -3.003906 5.332031 0.359375 11.664062 0.359375 C 17.996094 0.359375 21.714844 -3.003906 21.714844 -9.480469 L 21.714844 -24.328125 Z M 16.347656 -24.328125 "/></g></g></g><g fill="#ffffff" fill-opacity="1"><g transform="translate(299.828495, 76.385179)"><g><path d="M 11.589844 -3.792969 C 8.945312 -3.792969 6.652344 -5.117188 6.511719 -8.011719 L 1.074219 -8.011719 C 1.109375 -2.074219 6.011719 0.574219 11.375 0.574219 C 16.347656 0.574219 21.464844 -1.539062 21.464844 -7.261719 C 21.464844 -16.527344 7.40625 -13.414062 7.40625 -17.742188 C 7.40625 -19.570312 9.515625 -20.285156 11.019531 -20.285156 C 13.703125 -20.285156 15.167969 -19.460938 15.453125 -16.921875 L 20.640625 -16.921875 C 20.460938 -22.464844 15.957031 -24.683594 10.945312 -24.683594 C 6.511719 -24.683594 1.859375 -22.324219 1.859375 -17.316406 C 1.859375 -8.335938 15.917969 -11.375 15.917969 -6.652344 C 15.917969 -4.472656 13.273438 -3.792969 11.589844 -3.792969 Z M 11.589844 -3.792969 "/></g></g></g><g fill="#ffffff" fill-opacity="1"><g transform="translate(326.765306, 76.385179)"><g><path d="M 16.242188 -4.867188 L 7.511719 -4.867188 L 7.511719 -9.765625 L 15.882812 -9.765625 L 15.882812 -14.632812 L 7.511719 -14.632812 L 7.511719 -19.460938 L 16.242188 -19.460938 L 16.242188 -24.328125 L 2.144531 -24.328125 L 2.144531 0 L 16.242188 0 Z M 16.242188 -4.867188 "/></g></g></g></svg>